<svg width="18" height="17" viewBox="0 0 18 17" fill="none" xmlns="http://www.w3.org/2000/svg">
<path d="M2.37839 6.95557L4.62936 7.91117C4.88419 7.40151 5.15671 6.89894 5.44693 6.40344C5.73715 5.90794 6.04507 5.43368 6.37068 4.98066L4.69307 4.64089L2.37839 6.95557ZM5.64867 8.67565L8.473 11.5C9.27995 11.1319 10.0374 10.7143 10.7452 10.2471C11.4531 9.7799 12.0264 9.32687 12.4653 8.888C13.612 7.74128 14.4544 6.56625 14.9923 5.3629C15.5303 4.15955 15.8205 2.80047 15.863 1.28566C14.3482 1.32813 12.9891 1.61835 11.7858 2.15632C10.5824 2.69429 9.40737 3.53664 8.26065 4.68336C7.82178 5.12223 7.36875 5.69559 6.90157 6.40344C6.43439 7.11129 6.01675 7.8687 5.64867 8.67565ZM10.5116 6.63703C10.2285 6.35389 10.0869 6.0035 10.0869 5.58587C10.0869 5.16824 10.2285 4.81785 10.5116 4.53471C10.7948 4.25157 11.1451 4.11 11.5628 4.11C11.9804 4.11 12.3308 4.25157 12.6139 4.53471C12.8971 4.81785 13.0387 5.16824 13.0387 5.58587C13.0387 6.0035 12.8971 6.35389 12.6139 6.63703C12.3308 6.92017 11.9804 7.06174 11.5628 7.06174C11.1451 7.06174 10.7948 6.92017 10.5116 6.63703ZM10.1931 14.7703L12.5078 12.4556L12.168 10.778C11.715 11.1036 11.2407 11.4115 10.7452 11.7017C10.2497 11.9919 9.74714 12.2645 9.23748 12.5193L10.1931 14.7703ZM17.1159 0.0327635C17.2433 1.95812 17.0026 3.7136 16.3939 5.29919C15.7851 6.88478 14.78 8.37835 13.3784 9.7799L13.336 9.82237L13.2935 9.86484L13.7607 12.2008C13.8031 12.4131 13.7925 12.6184 13.7288 12.8166C13.6651 13.0148 13.5554 13.1918 13.3997 13.3475L9.76837 17L7.96335 12.7954L4.3533 9.1853L0.148649 7.38028L3.80117 3.74899C3.9569 3.59326 4.13386 3.48355 4.33206 3.41984C4.53026 3.35613 4.73554 3.34552 4.94789 3.38799L7.28381 3.85517C7.29797 3.84101 7.31212 3.83039 7.32628 3.82332C7.34044 3.81624 7.35459 3.80562 7.36875 3.79146C8.7703 2.38991 10.2639 1.38122 11.8495 0.765391C13.4351 0.149559 15.1905 -0.0946501 17.1159 0.0327635ZM1.57143 11.7548C2.06693 11.2593 2.67215 11.008 3.38708 11.0009C4.10201 10.9939 4.70722 11.2381 5.20272 11.7336C5.69822 12.2291 5.94243 12.8343 5.93535 13.5492C5.92827 14.2641 5.67698 14.8694 5.18149 15.3649C4.8134 15.7329 4.24358 16.0373 3.47202 16.278C2.70046 16.5187 1.54312 16.7452 0 16.9575C0.212356 15.4144 0.43533 14.2535 0.668921 13.4749C0.902513 12.6963 1.20335 12.1229 1.57143 11.7548ZM2.46333 12.6679C2.26513 12.8803 2.08817 13.213 1.93244 13.666C1.77671 14.119 1.64222 14.6995 1.52896 15.4073C2.23682 15.2941 2.81726 15.1596 3.27028 15.0039C3.72331 14.8481 4.056 14.6712 4.26835 14.473C4.53734 14.2323 4.67537 13.9315 4.68245 13.5705C4.68953 13.2094 4.56565 12.8945 4.31083 12.6255C4.04184 12.3706 3.72685 12.2468 3.36584 12.2538C3.00484 12.2609 2.704 12.399 2.46333 12.6679Z" fill="white"/>
</svg>
